<?xml version="1.0" standalone="no"?><!DOCTYPE svg PUBLIC "-//W3C//DTD SVG 1.1//EN" "http://www.w3.org/Graphics/SVG/1.1/DTD/svg11.dtd"><svg t="1515569932518" class="icon" style="" viewBox="0 0 1024 1024" version="1.1" xmlns="http://www.w3.org/2000/svg" p-id="3487" xmlns:xlink="http://www.w3.org/1999/xlink" width="64" height="64"><defs><style type="text/css"></style></defs><path d="M982.109091 139.636364H479.418182v744.727272H977.454545c4.654545 0 13.963636-4.654545 13.963637-13.963636V153.6c0-9.309091-4.654545-13.963636-9.309091-13.963636z" fill="#FFFFFF" p-id="3488"></path><path d="M982.109091 889.018182H474.763636V134.981818h507.345455c9.309091 0 18.618182 9.309091 18.618182 18.618182v721.454545c0 9.309091-9.309091 13.963636-18.618182 13.963637z m-493.381818-9.309091h493.381818c4.654545 0 4.654545-4.654545 4.654545-4.654546V153.6c0-4.654545-4.654545-4.654545-4.654545-4.654545H488.727273v730.763636z" fill="#067466" p-id="3489"></path><path d="M991.418182 148.945455h18.618182v730.763636h-18.618182zM702.836364 293.236364h-153.6c-9.309091 0-13.963636-4.654545-13.963637-13.963637 0-9.309091 4.654545-13.963636 13.963637-13.963636h153.6c9.309091 0 13.963636 4.654545 13.963636 13.963636 0 9.309091-4.654545 13.963636-13.963636 13.963637zM912.290909 293.236364h-153.6c-9.309091 0-13.963636-4.654545-13.963636-13.963637 0-9.309091 4.654545-13.963636 13.963636-13.963636h153.6c9.309091 0 13.963636 4.654545 13.963636 13.963636 0 9.309091-4.654545 13.963636-13.963636 13.963637zM702.836364 409.6h-153.6c-9.309091 0-13.963636-4.654545-13.963637-13.963636 0-9.309091 4.654545-13.963636 13.963637-13.963637h153.6c9.309091 0 13.963636 4.654545 13.963636 13.963637 0 9.309091-4.654545 13.963636-13.963636 13.963636zM912.290909 409.6h-153.6c-9.309091 0-13.963636-4.654545-13.963636-13.963636 0-9.309091 4.654545-13.963636 13.963636-13.963637h153.6c9.309091 0 13.963636 4.654545 13.963636 13.963637 0 9.309091-4.654545 13.963636-13.963636 13.963636zM702.836364 525.963636h-153.6c-9.309091 0-13.963636-4.654545-13.963637-13.963636 0-9.309091 4.654545-13.963636 13.963637-13.963636h153.6c9.309091 0 13.963636 4.654545 13.963636 13.963636 0 9.309091-4.654545 13.963636-13.963636 13.963636zM912.290909 525.963636h-153.6c-9.309091 0-13.963636-4.654545-13.963636-13.963636 0-9.309091 4.654545-13.963636 13.963636-13.963636h153.6c9.309091 0 13.963636 4.654545 13.963636 13.963636 0 9.309091-4.654545 13.963636-13.963636 13.963636zM702.836364 642.327273h-153.6c-9.309091 0-13.963636-4.654545-13.963637-13.963637 0-9.309091 4.654545-13.963636 13.963637-13.963636h153.6c9.309091 0 13.963636 4.654545 13.963636 13.963636 0 9.309091-4.654545 13.963636-13.963636 13.963637zM912.290909 642.327273h-153.6c-9.309091 0-13.963636-4.654545-13.963636-13.963637 0-9.309091 4.654545-13.963636 13.963636-13.963636h153.6c9.309091 0 13.963636 4.654545 13.963636 13.963636 0 9.309091-4.654545 13.963636-13.963636 13.963637z" fill="#067466" p-id="3490"></path><path d="M702.836364 758.690909h-153.6c-9.309091 0-13.963636-4.654545-13.963637-13.963636 0-9.309091 4.654545-13.963636 13.963637-13.963637h153.6c9.309091 0 13.963636 4.654545 13.963636 13.963637 0 9.309091-4.654545 13.963636-13.963636 13.963636zM912.290909 758.690909h-153.6c-9.309091 0-13.963636-4.654545-13.963636-13.963636 0-9.309091 4.654545-13.963636 13.963636-13.963637h153.6c9.309091 0 13.963636 4.654545 13.963636 13.963637 0 9.309091-4.654545 13.963636-13.963636 13.963636z" fill="#067466" p-id="3491"></path><path d="M465.454545 97.745455L23.272727 186.181818c-4.654545 0-9.309091 4.654545-9.309091 9.309091v633.018182c0 4.654545 4.654545 9.309091 9.309091 9.309091l442.181818 88.436363c9.309091 0 13.963636-4.654545 13.963637-9.30909V107.054545c0-9.309091-4.654545-13.963636-13.963637-9.30909zM386.327273 623.709091c-46.545455 4.654545-74.472727-9.309091-83.781818-37.236364l-32.581819-46.545454-32.581818 51.2c-9.309091 18.618182-23.272727 27.927273-32.581818 32.581818-9.309091 4.654545-32.581818 4.654545-60.509091 4.654545 9.309091-4.654545 23.272727-18.618182 32.581818-32.581818l65.163637-93.090909L158.254545 372.363636h60.509091l55.854546 83.781819 46.545454-83.781819h55.854546l-79.127273 125.672728 65.163636 93.090909c4.654545 9.309091 18.618182 18.618182 37.236364 37.236363-4.654545-4.654545-9.309091-4.654545-13.963636-4.654545z" fill="#067466" p-id="3492"></path></svg>